<svg width="158" height="27" viewBox="0 0 158 27" fill="none" xmlns="http://www.w3.org/2000/svg">
<g clip-path="url(#clip0)">
<path d="M1.93384 26.0658V0.92041H18.498V5.07255H6.72598V11.9672H16.5186V15.8565H6.72598V26.0658H1.93384Z" fill="#5193A8"/>
<path d="M31.3413 11.8978C29.9291 11.8978 28.6674 12.1756 27.5562 12.7312C26.445 13.2637 25.6463 14.0392 25.1601 15.0578V26.0658H20.5069V7.8696H24.7782V11.7589C25.4032 10.5088 26.2135 9.52486 27.209 8.8072C28.2276 8.08953 29.2925 7.69598 30.4037 7.62652C30.8899 7.62652 31.2024 7.6381 31.3413 7.66125V11.8978Z" fill="#5193A8"/>
<path d="M42.1369 26.4131C40.1691 26.4131 38.4676 25.9848 37.0323 25.1283C35.6201 24.2717 34.5204 23.1373 33.7333 21.7251C32.9462 20.2898 32.5526 18.7387 32.5526 17.0719C32.5526 15.3588 32.9346 13.7845 33.6986 12.3492C34.4857 10.8907 35.5969 9.73321 37.0323 8.87665C38.4676 7.99693 40.1807 7.55707 42.1716 7.55707C44.1626 7.55707 45.8641 7.99693 47.2763 8.87665C48.6885 9.73321 49.765 10.8792 50.5058 12.3145C51.2698 13.7267 51.6518 15.2546 51.6518 16.8983C51.6518 17.5002 51.617 18.0211 51.5476 18.4609H37.4837C37.5994 19.8731 38.1203 20.9843 39.0463 21.7946C39.9955 22.6049 41.0836 23.01 42.3106 23.01C43.2366 23.01 44.1047 22.7901 44.915 22.3502C45.7484 21.8872 46.3156 21.2853 46.6165 20.5445L50.61 21.6557C49.9386 23.0447 48.8621 24.1907 47.3805 25.0935C45.8989 25.9732 44.151 26.4131 42.1369 26.4131ZM37.3795 15.5092H46.8943C46.7554 14.1434 46.2346 13.0437 45.3317 12.2103C44.452 11.3537 43.3755 10.9255 42.1022 10.9255C40.8521 10.9255 39.7756 11.3537 38.8727 12.2103C37.993 13.0437 37.4953 14.1434 37.3795 15.5092Z" fill="#5193A8"/>
<path d="M62.9248 26.4131C60.9571 26.4131 59.2555 25.9848 57.8202 25.1283C56.408 24.2717 55.3083 23.1373 54.5212 21.7251C53.7341 20.2898 53.3406 18.7387 53.3406 17.0719C53.3406 15.3588 53.7225 13.7845 54.4865 12.3492C55.2736 10.8907 56.3848 9.73321 57.8202 8.87665C59.2555 7.99693 60.9686 7.55707 62.9596 7.55707C64.9505 7.55707 66.6521 7.99693 68.0642 8.87665C69.4764 9.73321 70.5529 10.8792 71.2937 12.3145C72.0577 13.7267 72.4397 15.2546 72.4397 16.8983C72.4397 17.5002 72.4049 18.0211 72.3355 18.4609H58.2716C58.3874 19.8731 58.9082 20.9843 59.8343 21.7946C60.7834 22.6049 61.8715 23.01 63.0985 23.01C64.0245 23.01 64.8926 22.7901 65.7029 22.3502C66.5363 21.8872 67.1035 21.2853 67.4044 20.5445L71.3979 21.6557C70.7265 23.0447 69.65 24.1907 68.1684 25.0935C66.6868 25.9732 64.9389 26.4131 62.9248 26.4131ZM58.1674 15.5092H67.6823C67.5434 14.1434 67.0225 13.0437 66.1196 12.2103C65.2399 11.3537 64.1634 10.9255 62.8901 10.9255C61.64 10.9255 60.5635 11.3537 59.6606 12.2103C58.7809 13.0437 58.2832 14.1434 58.1674 15.5092Z" fill="#5193A8"/>
<path d="M85.6227 26.4131C84.2336 26.4131 82.9951 26.1006 81.907 25.4755C80.8189 24.8504 79.9624 23.9939 79.3373 22.9058V26.0658H75.2744V0.934674H79.9277V11.0644C80.5759 9.97629 81.4209 9.11973 82.4626 8.49467C83.5276 7.8696 84.7661 7.55707 86.1783 7.55707C87.7525 7.55707 89.13 7.99693 90.3106 8.87665C91.5145 9.73321 92.452 10.8792 93.1234 12.3145C93.7948 13.7498 94.1305 15.324 94.1305 17.0372C94.1305 18.7966 93.76 20.3824 93.0192 21.7946C92.2784 23.2068 91.2598 24.3296 89.9634 25.163C88.6901 25.9964 87.2432 26.4131 85.6227 26.4131ZM84.3378 22.4544C85.3333 22.4544 86.2014 22.2113 86.9422 21.7251C87.7062 21.239 88.2965 20.5908 88.7132 19.7805C89.1531 18.9471 89.373 18.0442 89.373 17.0719C89.373 16.0764 89.1647 15.162 88.748 14.3286C88.3544 13.472 87.7988 12.7891 87.0811 12.2798C86.3635 11.7705 85.5416 11.5158 84.6156 11.5158C83.597 11.5158 82.6594 11.8631 81.8028 12.5576C80.9694 13.2289 80.3444 14.0623 79.9277 15.0578V19.3985C80.2286 20.3014 80.8189 21.0422 81.6987 21.621C82.5784 22.1766 83.4581 22.4544 84.3378 22.4544Z" fill="#5193A8"/>
<path d="M97.2832 5.33463V0.934269H101.936V5.33463H97.2832ZM97.2832 26.0658V7.8696H101.936V26.0658H97.2832Z" fill="#5193A8"/>
<path d="M116.969 11.8978C115.556 11.8978 114.295 12.1756 113.183 12.7312C112.072 13.2637 111.274 14.0392 110.787 15.0578V26.0658H106.134V7.8696H110.405V11.7589C111.03 10.5088 111.841 9.52486 112.836 8.8072C113.855 8.08953 114.92 7.69598 116.031 7.62652C116.517 7.62652 116.83 7.6381 116.969 7.66125V11.8978Z" fill="#5193A8"/>
<path d="M118.282 16.9677C118.282 15.2314 118.63 13.6456 119.324 12.2103C120.019 10.775 120.979 9.64061 122.206 8.8072C123.433 7.97378 124.834 7.55707 126.408 7.55707C127.751 7.55707 128.955 7.89275 130.02 8.56412C131.108 9.21233 131.953 10.0457 132.555 11.0644V0.934703H137.208V20.857C137.208 21.3663 137.289 21.7251 137.451 21.9335C137.613 22.1187 137.891 22.2344 138.284 22.2808V26.0658C137.451 26.2279 136.791 26.3089 136.305 26.3089C135.472 26.3089 134.777 26.1006 134.221 25.6839C133.689 25.2672 133.388 24.7231 133.319 24.0518L133.249 22.9058C132.578 24.0402 131.663 24.9083 130.506 25.5102C129.371 26.1121 128.179 26.4131 126.929 26.4131C125.239 26.4131 123.746 25.9964 122.449 25.163C121.153 24.3064 120.134 23.172 119.394 21.7599C118.653 20.3245 118.282 18.7272 118.282 16.9677ZM132.555 19.3985V15.0578C132.184 14.0392 131.548 13.1942 130.645 12.5228C129.742 11.8515 128.816 11.5158 127.867 11.5158C126.918 11.5158 126.084 11.782 125.366 12.3145C124.649 12.8238 124.093 13.5067 123.7 14.3633C123.306 15.1967 123.109 16.0996 123.109 17.0719C123.109 18.0674 123.329 18.9818 123.769 19.8152C124.209 20.6255 124.799 21.2737 125.54 21.7599C126.304 22.2229 127.172 22.4544 128.145 22.4544C129.024 22.4544 129.892 22.165 130.749 21.5862C131.629 21.0075 132.231 20.2782 132.555 19.3985Z" fill="#5193A8"/>
<path d="M144.953 0.92041H157.691V13.6585L144.953 0.92041Z" fill="#5193A8"/>
</g>
<defs>
<clipPath id="clip0">
<rect width="158" height="26.9756" fill="white"/>
</clipPath>
</defs>
</svg>
