<svg width="202" height="34" viewBox="0 0 202 34" fill="none" xmlns="http://www.w3.org/2000/svg">
<path d="M0.388916 33.2593V0.754883H21.8007V6.12217H6.58351V15.0346H19.242V20.0621H6.58351V33.2593H0.388916Z" fill="white"/>
<path d="M38.4027 14.9448C36.5772 14.9448 34.9463 15.304 33.5098 16.0222C32.0734 16.7105 31.041 17.713 30.4125 19.0297V33.2593H24.3975V9.7378H29.9188V14.7653C30.7268 13.1493 31.7742 11.8775 33.061 10.9498C34.3777 10.0221 35.7543 9.51336 37.1907 9.42358C37.8191 9.42358 38.2231 9.43855 38.4027 9.46847V14.9448Z" fill="white"/>
<path d="M52.3577 33.7082C49.814 33.7082 47.6145 33.1545 45.7591 32.0473C43.9336 30.9401 42.5122 29.4737 41.4947 27.6482C40.4772 25.7929 39.9685 23.7878 39.9685 21.6332C39.9685 19.4187 40.4623 17.3838 41.4498 15.5284C42.4673 13.6431 43.9037 12.1468 45.7591 11.0396C47.6145 9.90239 49.829 9.3338 52.4026 9.3338C54.9762 9.3338 57.1757 9.90239 59.0012 11.0396C60.8266 12.1468 62.2182 13.6281 63.1758 15.4835C64.1633 17.309 64.6571 19.2841 64.6571 21.4088C64.6571 22.1868 64.6122 22.8602 64.5224 23.4287H46.3426C46.4923 25.2542 47.1656 26.6906 48.3626 27.738C49.5896 28.7854 50.9961 29.3091 52.5821 29.3091C53.7791 29.3091 54.9014 29.0248 55.9488 28.4562C57.0261 27.8577 57.7592 27.0797 58.1483 26.122L63.3104 27.5585C62.4426 29.354 61.0511 30.8353 59.1358 32.0024C57.2206 33.1396 54.9612 33.7082 52.3577 33.7082ZM46.208 19.6132H58.5074C58.3278 17.8476 57.6545 16.4262 56.4874 15.3488C55.3502 14.2416 53.9587 13.688 52.3128 13.688C50.6968 13.688 49.3053 14.2416 48.1382 15.3488C47.001 16.4262 46.3576 17.8476 46.208 19.6132Z" fill="white"/>
<path d="M79.2293 33.7082C76.6856 33.7082 74.4861 33.1545 72.6307 32.0473C70.8053 30.9401 69.3838 29.4737 68.3663 27.6482C67.3489 25.7929 66.8401 23.7878 66.8401 21.6332C66.8401 19.4187 67.3339 17.3838 68.3214 15.5284C69.3389 13.6431 70.7753 12.1468 72.6307 11.0396C74.4861 9.90239 76.7006 9.3338 79.2742 9.3338C81.8478 9.3338 84.0473 9.90239 85.8728 11.0396C87.6982 12.1468 89.0898 13.6281 90.0474 15.4835C91.0349 17.309 91.5287 19.2841 91.5287 21.4088C91.5287 22.1868 91.4838 22.8602 91.3941 23.4287H73.2143C73.3639 25.2542 74.0372 26.6906 75.2343 27.738C76.4612 28.7854 77.8677 29.3091 79.4538 29.3091C80.6508 29.3091 81.773 29.0248 82.8204 28.4562C83.8977 27.8577 84.6309 27.0797 85.0199 26.122L90.1821 27.5585C89.3142 29.354 87.9227 30.8353 86.0075 32.0024C84.0922 33.1396 81.8328 33.7082 79.2293 33.7082ZM73.0796 19.6132H85.379C85.1995 17.8476 84.5261 16.4262 83.359 15.3488C82.2219 14.2416 80.8303 13.688 79.1844 13.688C77.5684 13.688 76.1769 14.2416 75.0098 15.3488C73.8726 16.4262 73.2292 17.8476 73.0796 19.6132Z" fill="white"/>
<path d="M108.57 33.7082C106.774 33.7082 105.173 33.3042 103.767 32.4962C102.36 31.6882 101.253 30.5809 100.445 29.1744V33.2593H95.1931V0.773322H101.208V13.8675C102.046 12.461 103.138 11.3538 104.485 10.5458C105.862 9.7378 107.463 9.3338 109.288 9.3338C111.323 9.3338 113.104 9.90239 114.63 11.0396C116.186 12.1468 117.398 13.6281 118.266 15.4835C119.134 17.3389 119.567 19.3738 119.567 21.5883C119.567 23.8627 119.089 25.9126 118.131 27.738C117.173 29.5635 115.857 31.0149 114.181 32.0922C112.535 33.1695 110.665 33.7082 108.57 33.7082ZM106.909 28.5909C108.196 28.5909 109.318 28.2767 110.276 27.6482C111.263 27.0198 112.026 26.1819 112.565 25.1345C113.133 24.0572 113.418 22.8901 113.418 21.6332C113.418 20.3464 113.148 19.1643 112.61 18.087C112.101 16.9798 111.383 16.097 110.455 15.4386C109.527 14.7803 108.465 14.4511 107.268 14.4511C105.951 14.4511 104.739 14.9 103.632 15.7977C102.555 16.6656 101.747 17.7429 101.208 19.0297V24.6407C101.597 25.8078 102.36 26.7654 103.497 27.5136C104.635 28.2318 105.772 28.5909 106.909 28.5909Z" fill="white"/>
<path d="M123.643 6.46095V0.772797H129.658V6.46095H123.643ZM123.643 33.2593V9.7378H129.658V33.2593H123.643Z" fill="white"/>
<path d="M149.089 14.9448C147.264 14.9448 145.633 15.304 144.196 16.0222C142.76 16.7105 141.728 17.713 141.099 19.0297V33.2593H135.084V9.7378H140.605V14.7653C141.413 13.1493 142.461 11.8775 143.748 10.9498C145.064 10.0221 146.441 9.51336 147.877 9.42358C148.506 9.42358 148.91 9.43855 149.089 9.46847V14.9448Z" fill="white"/>
<path d="M150.788 21.4985C150.788 19.2541 151.237 17.2042 152.134 15.3488C153.032 13.4935 154.274 12.0271 155.86 10.9498C157.446 9.87247 159.257 9.3338 161.292 9.3338C163.027 9.3338 164.583 9.76773 165.96 10.6356C167.366 11.4735 168.459 12.5508 169.237 13.8675V0.773359H175.252V26.526C175.252 27.1844 175.357 27.6482 175.566 27.9176C175.775 28.157 176.135 28.3066 176.643 28.3665V33.2593C175.566 33.4688 174.713 33.5735 174.085 33.5735C173.007 33.5735 172.11 33.3042 171.391 32.7655C170.703 32.2269 170.314 31.5236 170.224 30.6558L170.135 29.1744C169.267 30.6408 168.085 31.763 166.588 32.5411C165.122 33.3191 163.581 33.7082 161.965 33.7082C159.78 33.7082 157.85 33.1695 156.174 32.0922C154.498 30.9849 153.182 29.5186 152.224 27.6931C151.266 25.8377 150.788 23.7729 150.788 21.4985ZM169.237 24.6407V19.0297C168.758 17.713 167.935 16.6207 166.768 15.7528C165.601 14.885 164.404 14.4511 163.177 14.4511C161.95 14.4511 160.873 14.7952 159.945 15.4835C159.017 16.1419 158.299 17.0247 157.79 18.1319C157.281 19.2092 157.027 20.3763 157.027 21.6332C157.027 22.92 157.311 24.1021 157.88 25.1794C158.449 26.2268 159.212 27.0647 160.169 27.6931C161.157 28.2916 162.279 28.5909 163.536 28.5909C164.673 28.5909 165.795 28.2168 166.903 27.4687C168.04 26.7205 168.818 25.7779 169.237 24.6407Z" fill="white"/>
<path d="M185.263 0.754883H201.729V17.2209L185.263 0.754883Z" fill="white"/>
</svg>
